<svg width="15" height="10" viewBox="0 0 15 10" fill="none" xmlns="http://www.w3.org/2000/svg">
<path d="M5.61433 0C6.64751 0.168176 8.15985 0.562743 8.9834 0.795602C11.0423 1.41009 11.746 2.17335 11.746 3.89392C11.746 5.57568 10.5481 6.20957 9.02083 5.57568V2.44502C9.02083 2.08926 8.94596 1.74644 8.54168 1.64942C8.23472 1.56533 8.05503 1.81113 8.05503 2.17335V10L5.61433 9.3273V0ZM8.51173 8.63519L12.4423 7.42561C12.8915 7.28978 12.9589 7.09573 12.5995 6.99224C12.2327 6.88875 11.5813 6.92109 11.1321 7.05692L8.51173 7.85252V6.58474L8.66895 6.53946C8.66895 6.53946 9.42512 6.29366 10.4808 6.20957C11.5514 6.10608 12.8541 6.22251 13.8723 6.55239C15.0253 6.86934 15.16 7.33506 14.868 7.65201C14.5686 7.97542 13.8498 8.20181 13.8498 8.20181L8.51173 9.85123V8.63519ZM1.12225 8.50582C-0.0531819 8.23415 -0.255326 7.61966 0.283725 7.26391C0.785341 6.94049 1.63135 6.7141 1.63135 6.7141L5.13518 5.64683V6.86287L2.61961 7.64554C2.1704 7.78137 2.10302 7.97542 2.46239 8.07891C2.82175 8.18241 3.48059 8.15653 3.92231 8.01423L5.13518 7.63907V8.73221L4.8956 8.77102C3.68274 8.9392 2.39501 8.88098 1.12225 8.50582Z" fill="white"/>
</svg>
