<svg width="29" height="30" viewBox="0 0 29 30" fill="none" xmlns="http://www.w3.org/2000/svg">
<path d="M14.5 1.875C7.49355 1.875 1.8125 7.75195 1.8125 15C1.8125 22.248 7.49355 28.125 14.5 28.125C21.5064 28.125 27.1875 22.248 27.1875 15C27.1875 7.75195 21.5064 1.875 14.5 1.875ZM14.5 25.8984C8.68301 25.8984 3.96484 21.0176 3.96484 15C3.96484 8.98242 8.68301 4.10156 14.5 4.10156C20.317 4.10156 25.0352 8.98242 25.0352 15C25.0352 21.0176 20.317 25.8984 14.5 25.8984Z" fill="white" fill-opacity="0.8"/>
<path d="M14.5 4.10156C8.68301 4.10156 3.96484 8.98242 3.96484 15C3.96484 21.0176 8.68301 25.8984 14.5 25.8984C20.317 25.8984 25.0352 21.0176 25.0352 15C25.0352 8.98242 20.317 4.10156 14.5 4.10156ZM19.1474 15.1816L12.9622 19.8369C12.9283 19.8621 12.8883 19.8772 12.8467 19.8804C12.8051 19.8836 12.7634 19.8749 12.7262 19.8553C12.689 19.8356 12.6578 19.8057 12.636 19.7689C12.6142 19.732 12.6026 19.6897 12.6025 19.6465V10.3418C12.6024 10.2985 12.6139 10.256 12.6356 10.2191C12.6574 10.1821 12.6886 10.1521 12.7259 10.1324C12.7631 10.1127 12.8049 10.104 12.8466 10.1074C12.8883 10.1107 12.9283 10.1259 12.9622 10.1514L19.1474 14.8037C19.1766 14.8251 19.2004 14.8534 19.2169 14.8863C19.2333 14.9192 19.2419 14.9557 19.2419 14.9927C19.2419 15.0297 19.2333 15.0662 19.2169 15.0991C19.2004 15.1319 19.1766 15.1603 19.1474 15.1816V15.1816Z" fill="white" fill-opacity="0.1"/>
<path d="M19.1474 14.8037L12.9622 10.1514C12.9284 10.126 12.8883 10.1107 12.8466 10.1074C12.8049 10.104 12.7631 10.1127 12.7259 10.1324C12.6886 10.1521 12.6574 10.1822 12.6356 10.2191C12.6139 10.2561 12.6024 10.2986 12.6025 10.3418V19.6465C12.6026 19.6897 12.6142 19.7321 12.636 19.7689C12.6578 19.8057 12.689 19.8356 12.7262 19.8553C12.7634 19.875 12.8051 19.8837 12.8467 19.8804C12.8883 19.8772 12.9283 19.8622 12.9622 19.8369L19.1474 15.1817C19.1766 15.1603 19.2004 15.132 19.2169 15.0991C19.2333 15.0662 19.2419 15.0297 19.2419 14.9927C19.2419 14.9557 19.2333 14.9192 19.2169 14.8863C19.2004 14.8534 19.1766 14.8251 19.1474 14.8037V14.8037Z" fill="white" fill-opacity="0.8"/>
</svg>
