<svg width="10" height="10" viewBox="0 0 10 10" fill="none" xmlns="http://www.w3.org/2000/svg">
<path d="M2.215 0.86C2.25 0.83 2.285 0.8 2.31 0.78C3.09 0.275 4 0 5 0C5.94 0 6.82 0.25 7.57 0.71C7.625 0.75 7.77 0.845 7.85 0.94C7.125 0.14 5 1.85 5 1.85C4.25 1.285 3.585 0.9 3.08 0.75C2.655 0.645 2.365 0.75 2.23 0.85L2.215 0.86ZM8.67 1.605C8.645 1.58 8.62 1.555 8.6 1.53C8.42 1.33 8.19 1.28 8 1.295C7.805 1.355 6.95 1.66 5.9 2.655C5.9 2.655 7.085 3.805 7.81 4.98C8.535 6.155 8.965 7.08 8.7 8.365C9.5 7.475 10 6.295 10 5C10 3.69 9.5 2.5 8.67 1.605ZM6.865 5.48C6.54 5.12 6.065 4.605 5.43 3.975C5.295 3.84 5.15 3.7 5 3.55C5 3.55 4.765 3.78 4.465 4.085C4.08 4.47 3.585 4.975 3.305 5.27C2.815 5.795 1.405 7.445 1.325 8.37C1.325 8.37 1 7.64 1.7 5.945C2.15 4.84 3.5 3.18 4.075 2.64C4.075 2.64 3.56 2.07 2.91 1.675L2.885 1.66C2.57 1.475 2.23 1.33 1.9 1.31C1.565 1.335 1.355 1.58 1.355 1.58C0.483148 2.50512 -0.00166736 3.72879 4.30862e-06 5C4.30862e-06 6.32608 0.526788 7.59785 1.46447 8.53553C1.92876 8.99983 2.47996 9.36812 3.08659 9.6194C3.69321 9.87067 4.34339 10 5 10C6.465 10 7.785 9.37 8.7 8.365C8.7 8.365 8.595 7.7 7.92 6.75C7.765 6.535 7.185 5.845 6.865 5.48Z" fill="white"/>
</svg>
