<svg width="15" height="15" viewBox="0 0 15 15" fill="none" xmlns="http://www.w3.org/2000/svg">
<path d="M14.3182 7.5V13.5C14.3182 13.8978 14.1745 14.2794 13.9188 14.5607C13.6631 14.842 13.3162 15 12.9545 15H2.04545C1.6838 15 1.33695 14.842 1.08122 14.5607C0.825487 14.2794 0.681818 13.8978 0.681818 13.5V7.5C0.500989 7.5 0.327566 7.42098 0.1997 7.28033C0.0718342 7.13968 0 6.94891 0 6.75V4.5C0 4.10218 0.143668 3.72064 0.3994 3.43934C0.655131 3.15804 1.00198 3 1.36364 3H3.525C3.44794 2.75905 3.40875 2.50542 3.40909 2.25C3.40909 1.65326 3.62459 1.08097 4.00819 0.65901C4.39179 0.237053 4.91206 0 5.45455 0C6.13636 0 6.73636 0.375 7.11136 0.93V0.9225L7.5 1.5L7.88864 0.9225V0.93C8.26364 0.375 8.86364 0 9.54545 0C10.0879 0 10.6082 0.237053 10.9918 0.65901C11.3754 1.08097 11.5909 1.65326 11.5909 2.25C11.5913 2.50542 11.5521 2.75905 11.475 3H13.6364C13.998 3 14.3449 3.15804 14.6006 3.43934C14.8563 3.72064 15 4.10218 15 4.5V6.75C15 6.94891 14.9282 7.13968 14.8003 7.28033C14.6724 7.42098 14.499 7.5 14.3182 7.5ZM2.04545 13.5H6.81818V7.5H2.04545V13.5ZM12.9545 13.5V7.5H8.18182V13.5H12.9545ZM5.45455 1.5C5.27372 1.5 5.10029 1.57902 4.97243 1.71967C4.84456 1.86032 4.77273 2.05109 4.77273 2.25C4.77273 2.44891 4.84456 2.63968 4.97243 2.78033C5.10029 2.92098 5.27372 3 5.45455 3C5.63538 3 5.8088 2.92098 5.93666 2.78033C6.06453 2.63968 6.13636 2.44891 6.13636 2.25C6.13636 2.05109 6.06453 1.86032 5.93666 1.71967C5.8088 1.57902 5.63538 1.5 5.45455 1.5ZM9.54545 1.5C9.36462 1.5 9.1912 1.57902 9.06334 1.71967C8.93547 1.86032 8.86364 2.05109 8.86364 2.25C8.86364 2.44891 8.93547 2.63968 9.06334 2.78033C9.1912 2.92098 9.36462 3 9.54545 3C9.72628 3 9.89971 2.92098 10.0276 2.78033C10.1554 2.63968 10.2273 2.44891 10.2273 2.25C10.2273 2.05109 10.1554 1.86032 10.0276 1.71967C9.89971 1.57902 9.72628 1.5 9.54545 1.5ZM1.36364 4.5V6H6.81818V4.5H1.36364ZM8.18182 4.5V6H13.6364V4.5H8.18182Z" fill="white"/>
</svg>
